PathFileType	4	(X/Y/Z)	2_2_7_p0_0-292.trc
DataRate	CameraRate	NumFrames	NumMarkers	Units	OrigDataRate	OrigDataStartFrame	OrigNumFrames
59.0	59.0	6	27	m	59.0	219	293
Frame#	Time	RHip			RKnee			RAnkle			RBigToe			RSmallToe			RHeel			LHip			LKnee			LAnkle			LBigToe			LSmallToe			LHeel			Neck			Head			Nose			RShoulder			RElbow			RWrist			RThumb			RIndex			RPinky			LShoulder			LElbow			LWrist			LThumb			LIndex			LPinky			
		X1	Y1	Z1	X2	Y2	Z2	X3	Y3	Z3	X4	Y4	Z4	X5	Y5	Z5	X6	Y6	Z6	X7	Y7	Z7	X8	Y8	Z8	X9	Y9	Z9	X10	Y10	Z10	X11	Y11	Z11	X12	Y12	Z12	X13	Y13	Z13	X14	Y14	Z14	X15	Y15	Z15	X16	Y16	Z16	X17	Y17	Z17	X18	Y18	Z18	X19	Y19	Z19	X20	Y20	Z20	X21	Y21	Z21	X22	Y22	Z22	X23	Y23	Z23	X24	Y24	Z24	X25	Y25	Z25	X26	Y26	Z26	X27	Y27	Z27	
219	3.711864406779661	0.38572828066946097	0.6218432598693504	0.997050741965421	0.3417342178510838	0.7024872409929808	1.406796913496023	0.28959653981413364	0.9135970404656774	1.816105124180992	0.2976005549709791	0.669824970456002	1.877998103948642	0.3545720919954486	0.7609985604069579	1.8969159096709118	0.2761908679906488	0.9326847473336953	1.8489143343505998	0.1575906314947697	0.6485318244418414	1.0260451392336405	0.1537330610024866	0.7588828573744916	1.414697835451204	0.13188501045450896	0.9316208504866548	1.8375934065175654	0.14297011579486815	0.6860397171024442	1.8925157734610245	0.08699470248478812	0.7145209847053593	1.8743588705657452	0.13183955798177455	0.9881168341001314	1.8850812347268737	0.21171211881029453	0.43263583944063594	0.4927052732596874	0.02680042811010462	0.2566764212887824	0.3517585329156805	0.1546860027758992	0.2943300770620522	0.4734545700810832	0.39695473607209614	0.41169983321235315	0.43585419140116444	0.5027255241171528	0.5378934123475452	0.6830154830360433	0.521764294360755	0.56922169771003	0.9462625076881405	0.46077553101431795	0.5860609482749711	1.061538526508726	0.49402183410936096	0.5710284447181158	1.082690460802673	0.5151225576300265	0.6432176844017454	1.0763060167233733	0.06180614813648176	0.5101963507644751	0.5576993759501642	0.04456141750283649	0.5885898491506859	0.8325977202596284	0.05987846513949919	0.6017773833713236	1.0917585916210695	0.12199102560311172	0.6014481473343882	1.1893802553017714	0.11201342489292648	0.593679294132058	1.2424184877650193	0.057289398937956225	0.6698798152886878	1.244295850910024
220	3.7288135593220337	0.385662361292745	0.6221291137180269	0.9969704273394164	0.34250717039743284	0.7054570680325063	1.4110522532944907	0.28960324530396203	0.9135954620953973	1.8160887624663862	0.2975773020464072	0.6697802378990029	1.8779748704743264	0.35458397517485046	0.7609381738980231	1.896937187678483	0.2761923784342427	0.932878914864632	1.8488239565470148	0.1559490280325409	0.6372498624227049	1.0298715513514898	0.15335008366685055	0.7593304606124195	1.4104863370359384	0.13240424260276393	0.9258217709458463	1.8274307499580182	0.14298974127440897	0.6858721174516988	1.8923773825179449	0.08703167319360905	0.7144506555408748	1.8741605560342336	0.13197948832667966	0.9879694211584931	1.8848643673420893	0.21150323539453433	0.4334769134691034	0.49593713439965775	0.02705424428595009	0.2551528497183175	0.34816989142557375	0.1546964649004971	0.29446448967034194	0.47341413264078797	0.3969326525145743	0.41172483786343256	0.43586617340141115	0.5030536015218083	0.5403504983088987	0.6867483102443	0.5258921107962571	0.5702770573483847	0.946144639171185	0.4602892160479281	0.5870443776050528	1.0580704425052398	0.48926905123388864	0.5862587133154554	1.0839954798482603	0.515202806642676	0.6433087242154029	1.0766344778179986	0.06038893097272682	0.4995192512413717	0.5628890849001708	0.04469565676223239	0.5886401233551087	0.832585705989102	0.053526103777061504	0.6164335878892856	1.0931713131009773	0.12278634077406606	0.6039922388823605	1.1973652603509048	0.11130294426918497	0.5948085698437489	1.2462763067902707	0.05705647379219569	0.6703334006508421	1.2442623520284208
221	3.7457627118644066	0.3803498042455775	0.6373590768285065	0.9979134404539447	0.3391392789638834	0.6888143401983913	1.4046843388617565	0.2895935580644275	0.9135561785980406	1.8161132778048987	0.2975707567639583	0.6698827868556457	1.8779518838254168	0.3545385142097959	0.7609393725031849	1.896880071034797	0.2761882866766184	0.932794283874981	1.8487847986265016	0.15537218606266373	0.634731015671105	1.025459850312647	0.15329178750485117	0.7592516039441545	1.4103137255033382	0.13237941743682657	0.9258532323475963	1.8272612785464741	0.142938036815521	0.6860057472918828	1.892542641927951	0.08691952685861039	0.7145603026215318	1.8744615951050074	0.13187987038436275	0.9879678637192466	1.8848318016610177	0.21680997262735463	0.42086481873228043	0.4942448019826336	0.02126716380630259	0.2665406095095327	0.3454889251190554	0.15458682417532313	0.29437469972536323	0.4701026862354534	0.39693901849187563	0.41170533340703197	0.43583353535959946	0.5031077032116295	0.5402508624749065	0.6869571396784966	0.5216895835272681	0.569302069348493	0.9463440150132892	0.46025971603402116	0.587021601791003	1.0581964872923821	0.48865880431643355	0.573198388487495	1.0860030892804529	0.5196328428210901	0.6283470297617205	1.0751224064943496	0.06178869935450666	0.5105234825661865	0.5577870149248034	0.044617124370158606	0.5885076486848525	0.8323858159401027	0.05343746042290332	0.6164673947169403	1.093191738411284	0.12209495549955772	0.6016897844364061	1.1934107045119655	0.11123138765564754	0.5950139658634296	1.2462869540713188	0.056953057046675096	0.6713026197950277	1.244436985462423
222	3.76271186440678	0.37994257426352424	0.6377079345065355	0.9941049373032237	0.3398869531215662	0.6918583358417544	1.4089231565871452	0.28957061564592973	0.913563396076733	1.8160466947008136	0.2975748747846024	0.6699587523683227	1.8780232117628746	0.35457778466919165	0.7611540209846376	1.896974841734151	0.2756224883192618	0.9339142782785678	1.8450491543313015	0.15534761763283716	0.6346181753827659	1.0254226152192387	0.15326025073022198	0.7594285671822502	1.410658755121119	0.13306840055789476	0.9295708471402261	1.8324781260167287	0.1430149483890113	0.6861136196783111	1.8925031693427512	0.08694143055321081	0.714539829931657	1.8742770804275726	0.13183657254731754	0.9881539667907632	1.8849259221593109	0.21693495594942208	0.4238682763889245	0.49784318072934336	0.0305178317679464	0.25816305221632563	0.350311394051217	0.15443846943031975	0.29439264976788543	0.4700283579448792	0.3924535305620136	0.42475319729424543	0.4342400805930758	0.5033568636039419	0.5401266610284533	0.6907403854052585	0.5215106602803524	0.569419637619022	0.9464742003051445	0.46049978604186914	0.586461966569856	1.0618451861704212	0.4842453337361481	0.5735124433091559	1.086333402920986	0.5198014653970622	0.6284518097728445	1.0824366513672892	0.0605643254996609	0.49853562164536575	0.5591021577271116	0.04426801691747615	0.5880218113001128	0.8284715872121662	0.053412839880978294	0.616431570224177	1.0930770637176843	0.11787718979357645	0.5957703139226883	1.1885225559509338	0.11146174847152616	0.5912085198658108	1.2377773646994061	0.057064820027264665	0.6707071604995091	1.2443080851910933
223	3.7796610169491527	0.3797691763353877	0.6380650090324128	0.9944339125500535	0.3431022446707805	0.7048703193233387	1.4150142044044933	0.28959633856449984	0.9135746028476326	1.816062528948563	0.29758183046504527	0.6700639069042313	1.878094298534808	0.35762706244341474	0.7755727267375879	1.9011817230676817	0.27565418057471686	0.933728136724427	1.844997561194306	0.1551969285779842	0.6348976503584901	1.0254396162369483	0.15319893121958908	0.7596519286720697	1.410754997289136	0.13306352817932904	0.929523669431472	1.832320987238157	0.14298916362926545	0.6863868420323838	1.89258161300805	0.08697242053636553	0.7146645172616503	1.8741674972968272	0.12815319621071433	0.9857845045251946	1.8844446771723744	0.2168500341740272	0.4212309975328355	0.494337952661693	0.03662603563041605	0.24534320238153343	0.3449743539055854	0.15986313889014675	0.2835218979981875	0.471356126541388	0.396889235536741	0.41189277937034974	0.43600174963544563	0.5032680574578876	0.5403289799110137	0.6908735739279971	0.5214661388736146	0.5694574094157793	0.9464779382285116	0.4558649633005896	0.5997621612626493	1.0631327798055954	0.484235935892741	0.5730811190033386	1.0863745885964917	0.5156391309861448	0.642575786018516	1.084205311908066	0.06211364452505871	0.5119875069092622	0.5577054953940288	0.0441804026287233	0.588137260554335	0.8283899202099422	0.04684888143858629	0.6314265282351875	1.0944620235899345	0.11821444907938063	0.5987610510979212	1.19274570034828	0.10636739744682007	0.602650394453762	1.2359353965884465	0.05690100182592854	0.6671194552397701	1.239970162662096
224	3.7966101694915255	0.37062317325053323	0.6519887647575218	0.9993672313379356	0.3431431919733039	0.7046505847546067	1.414790317772095	0.2895959889052727	0.9135295549220653	1.816065295731213	0.2976241584127471	0.6701273920663753	1.8781033639399574	0.35765981792474266	0.7754841537794921	1.9010826915258712	0.2756166698942427	0.9337231788652407	1.8450404459319687	0.14871503358823357	0.649390092835814	1.0226101991787695	0.15410112625715003	0.7579724943662376	1.4061658410466333	0.13310353798337995	0.9296069886417153	1.832472720114529	0.14365094042031298	0.6851655409449583	1.8964550666825521	0.087004573964308	0.7146035001073753	1.8741864066260725	0.13187621218082918	0.9878203132899147	1.8846691160008848	0.2166199188780551	0.42065177513695734	0.49405676172483554	0.036640494701421465	0.24329630560430765	0.33791630056881594	0.15983848634569983	0.2831745910870954	0.4712760815405566	0.39698168164833036	0.41259622461700185	0.43942156652643116	0.5032509664870538	0.5404652158378714	0.6908320459225445	0.517198447595583	0.5842327329700031	0.9473800623475377	0.45630968117553034	0.586952345988986	1.0660994499896301	0.48849834740317943	0.560107811824344	1.088738100749106	0.5155986879926813	0.643125936543748	1.0845370943433834	0.0604584207021218	0.49615107070134334	0.5556883188289573	0.044024430268824265	0.5882955934486648	0.8281563766694203	0.04632338716816911	0.6284276317547709	1.0901207775299593	0.11498845196777976	0.5811634905376286	1.1865689725813378	0.11120276987374793	0.5906664127663392	1.237465448814065	0.05644911325858063	0.6646392324495691	1.2355072118063524
